<?xml version="1.0" standalone="no"?>
<!DOCTYPE svg PUBLIC "-//W3C//DTD SVG 20010904//EN"
 "http://www.w3.org/TR/2001/REC-SVG-20010904/DTD/svg10.dtd">
<svg version="1.0" xmlns="http://www.w3.org/2000/svg"
 width="264.000000pt" height="286.000000pt" viewBox="0 0 264.000000 286.000000"
 preserveAspectRatio="xMidYMid meet">

<g transform="translate(0.000000,286.000000) scale(0.100000,-0.100000)"
fill="#000000" stroke="none">
<path d="M1208 2815 c-368 -90 -656 -453 -735 -927 -9 -54 -21 -98 -26 -98 -6
0 -43 31 -83 70 -39 39 -79 70 -87 70 -8 0 -34 9 -58 20 -56 25 -120 26 -142
2 -11 -12 -16 -41 -18 -105 -1 -49 -9 -107 -17 -131 -19 -53 -13 -70 35 -94
21 -11 52 -27 68 -36 32 -17 90 -22 99 -7 3 5 -20 12 -52 16 -37 4 -68 15 -85
28 -31 25 -53 85 -34 93 7 2 77 -7 157 -20 l145 -25 32 25 c39 30 39 29 48
-111 34 -512 301 -913 690 -1035 106 -33 265 -38 376 -12 218 52 399 183 532
384 161 244 228 486 230 828 l1 185 -47 135 c-26 74 -65 172 -87 218 -130 272
-347 463 -593 522 -97 24 -262 26 -349 5z m324 -187 c104 -39 174 -85 262
-173 175 -175 270 -411 283 -700 23 -499 -252 -940 -646 -1041 -90 -23 -253
-16 -341 15 -226 79 -425 308 -500 574 -22 82 -24 91 -36 270 l-7 107 50 0 50
0 6 -92 c22 -324 215 -595 472 -665 128 -34 303 -9 410 58 64 40 155 117 155
131 0 6 -10 3 -22 -8 -12 -10 -6 1 14 25 42 49 107 171 133 246 9 28 25 88 35
135 13 59 19 74 19 49 2 -91 -62 -265 -140 -383 -34 -52 -36 -56 -9 -26 40 45
124 216 147 300 22 82 25 373 5 463 -17 72 -24 70 -13 -4 5 -29 8 -55 6 -57
-2 -2 -10 23 -19 55 -71 253 -189 420 -359 503 -229 112 -458 54 -644 -163
-62 -72 -139 -232 -167 -347 l-23 -95 -32 3 c-23 2 -31 -1 -31 -12 0 -10 -9
-16 -21 -16 -21 0 -21 3 -15 65 8 84 48 219 91 312 113 244 312 425 535 488
86 24 266 15 352 -17z m-128 -362 c135 -66 240 -208 282 -381 24 -94 23 -277
0 -365 -92 -347 -395 -537 -652 -410 -127 62 -234 203 -269 355 -20 84 -13 97
10 18 29 -102 80 -195 142 -259 32 -34 39 -40 17 -14 -60 67 -93 124 -125 211
-28 78 -54 228 -41 241 4 4 26 4 49 1 40 -5 43 -8 49 -42 14 -84 40 -156 74
-211 66 -101 141 -143 260 -143 62 -1 84 4 126 25 46 24 87 58 69 58 -4 0 5
14 20 31 38 47 74 122 95 203 10 39 19 59 19 45 2 -63 -48 -183 -101 -246
l-32 -38 31 29 c43 39 89 129 109 212 17 74 15 208 -6 254 -9 22 -10 19 -5
-17 3 -24 3 -43 1 -43 -2 0 -14 30 -26 68 -50 156 -149 250 -283 268 -112 16
-237 -65 -297 -192 -55 -114 -51 -144 17 -144 28 0 36 6 53 40 11 22 24 39 28
37 5 -1 23 15 42 36 102 116 245 85 311 -67 49 -113 21 -265 -66 -349 -105
-102 -241 -79 -307 52 -16 30 -28 64 -28 75 0 12 12 -5 29 -39 16 -33 44 -73
62 -90 33 -30 33 -29 -4 12 -23 27 -43 65 -54 102 -17 58 -19 60 -53 63 -23 2
-35 8 -35 18 0 9 -11 16 -30 18 -51 4 -75 12 -75 23 0 7 20 10 55 7 46 -2 55
0 55 14 0 11 -10 18 -27 20 -16 2 -27 8 -26 15 2 7 -13 15 -35 18 -64 11 -62
8 -46 74 7 34 21 78 29 98 8 20 13 38 11 40 -5 6 -41 -91 -51 -137 -10 -47
-24 -73 -25 -44 -1 68 105 298 138 299 4 0 31 25 59 56 130 138 300 173 457
95z m-1295 -400 c-29 -49 -34 -46 -9 5 12 23 24 39 26 36 3 -2 -5 -21 -17 -41z"/>
<path d="M1792 2115 c12 -24 23 -43 26 -41 4 5 -36 86 -43 86 -3 0 5 -20 17
-45z"/>
<path d="M1822 2055 c0 -5 6 -26 13 -45 7 -19 14 -28 14 -20 0 8 -6 29 -14 45
-7 17 -13 26 -13 20z"/>
<path d="M861 2070 c-12 -22 -20 -40 -18 -40 7 0 48 72 44 76 -2 2 -14 -14
-26 -36z"/>
<path d="M1425 2030 c10 -11 20 -20 23 -20 3 0 -3 9 -13 20 -10 11 -20 20 -23
20 -3 0 3 -9 13 -20z"/>
<path d="M1493 1920 c11 -27 23 -48 25 -46 4 5 -35 96 -42 96 -2 0 5 -22 17
-50z"/>
<path d="M1001 1819 c-6 -18 -9 -34 -7 -36 2 -2 9 10 15 28 6 18 9 34 7 36 -2
2 -9 -10 -15 -28z"/>
<path d="M1138 1788 c-9 -7 -19 -29 -22 -49 l-7 -37 46 -4 c31 -2 45 1 45 9 0
7 5 13 10 13 6 0 10 -14 10 -31 l0 -30 -55 6 c-54 7 -55 7 -55 -17 0 -56 86
-80 128 -35 26 27 37 76 27 114 -7 25 -8 26 -15 8 -6 -18 -9 -16 -26 15 -10
19 -17 38 -16 43 3 12 -53 8 -70 -5z m112 -127 c0 -10 -9 -29 -20 -42 l-20
-24 15 30 c8 17 15 36 15 43 0 6 2 12 5 12 3 0 5 -9 5 -19z"/>
<path d="M1220 1786 c0 -2 8 -10 18 -17 15 -13 16 -12 3 4 -13 16 -21 21 -21
13z"/>
</g>
</svg>
